<svg viewBox="0 0 62 62" fill="none" xmlns="http://www.w3.org/2000/svg" class="jss546"><title>ZLP Token Logo</title><desc>ZLP Token Logo</desc><path d="M28.5568 61.8969C18.5242 60.8947 9.42886 55.6088 4.52525 47.9306C2.5247 44.798 0.979066 40.8422 0.492559 37.6093C0.274378 36.1596 0.125558 32.7814 0.194457 30.8427C0.443748 23.8277 2.0789 18.3871 5.38618 13.5685C6.54416 11.8814 7.30055 10.9966 8.9289 9.4246C11.5314 6.91207 14.1489 5.13782 17.8585 3.37179C21.1684 1.79599 23.8582 0.974238 27.3575 0.469712C29.1413 0.212522 33.2136 0.237873 35.0712 0.517654C41.0004 1.41097 46.2183 3.95267 51.1957 8.37217C56.5087 13.0896 60.0313 18.5992 61.3168 24.2025C61.7998 26.3075 61.8862 27.1379 61.8916 29.7251C61.8973 32.3479 61.8297 33.0679 61.3598 35.41L61.0601 36.9043L59.9445 37.121C56.8959 37.7131 52.9915 38.773 50.5293 39.6769C48.6294 40.3744 48.2438 40.5321 45.4919 41.7371C42.8526 42.8928 41.6565 43.3497 40.2261 43.7487C37.2364 44.5827 34.0446 44.6534 31.8884 43.9333C28.9863 42.9643 26.8158 40.6481 26.3436 38.0164C26.185 37.1326 26.2799 35.4104 26.5384 34.4847C27.1601 32.2573 28.5346 29.9626 30.6644 27.5967C31.0584 27.159 31.3892 26.8094 31.3995 26.8197C31.4095 26.8294 31.5371 27.7812 31.6823 28.9336C31.8276 30.086 31.9535 31.039 31.9621 31.0515C31.9708 31.0641 32.341 30.9455 32.7851 30.7882C35.3856 29.8671 38.0659 29.6979 40.7924 30.2826C42.1263 30.5687 44.586 31.3461 46.9792 32.2381C47.9027 32.5823 48.9389 32.9217 49.282 32.9924C50.9167 33.3292 53.5878 32.9966 55.2906 32.2448C55.7547 32.0399 55.7895 31.9998 55.9133 31.5283C56.0809 30.8896 56.0828 29.0735 55.916 28.2693L55.7883 27.6516L53.9021 26.3937C42.5403 18.8171 33.0083 14.3277 24.907 12.7377C22.7039 12.3053 18.8653 11.9343 18.8653 12.1538C18.8653 12.2065 18.8422 12.308 18.8139 12.3794C18.7767 12.4736 19.8835 13.0451 22.8417 14.459C25.0852 15.5313 26.9216 16.4296 26.9226 16.4552C26.9236 16.4809 26.1365 16.768 25.1736 17.0934C22.4302 18.0204 20.5914 18.7531 18.7207 19.6644C17.1733 20.4182 14.9339 21.7195 14.9321 21.8659C14.9317 21.8968 15.7695 21.9985 16.794 22.0919L18.6566 22.2618L17.6325 23.3395C16.2519 24.7925 15.4525 25.7228 13.5057 28.1421L11.8571 30.1908L13.2983 30.2164C14.0909 30.2305 14.7386 30.2724 14.7374 30.3095C14.7363 30.3466 14.0709 32.5769 13.2587 35.2658C12.4465 37.9547 11.7902 40.1629 11.8002 40.1729C11.8102 40.1826 12.5029 40.0426 13.3395 39.8612C14.3292 39.6466 14.8819 39.5648 14.9215 39.6272C14.9551 39.6798 15.1278 41.8525 15.3054 44.4553C15.483 47.058 15.6422 49.2031 15.6592 49.222C15.6761 49.241 16.2791 48.7696 16.9992 48.1744C17.7192 47.5793 18.3365 47.0927 18.3709 47.0931C18.4054 47.0933 19.5993 48.8515 21.0242 50.9995C22.449 53.1476 23.6459 54.9073 23.6839 54.9099C23.722 54.9126 24.279 54.3043 24.9217 53.5584C25.8569 52.4732 26.1132 52.2266 26.2043 52.3245C26.2669 52.3918 26.7454 52.9707 27.2675 53.6109C27.7896 54.2511 28.7141 55.2625 29.322 55.8584L30.4272 56.9419L32.778 56.9436C36.4306 56.9464 38.7465 57.3248 41.8228 58.4228L42.7598 58.7573L42.4464 58.9859C40.5974 60.3352 38.2532 61.2283 35.2727 61.7191C34.3333 61.8737 33.5636 61.9233 31.7225 61.9475C30.4296 61.9645 29.0048 61.9419 28.5562 61.8969L28.5568 61.8969Z" fill="#52C4C4"></path></svg>
